<svg width="800px" height="800px" viewBox="0 0 24 24" fill="none" xmlns="http://www.w3.org/2000/svg">

<g id="SVGRepo_bgCarrier" stroke-width="0"/>

<g id="SVGRepo_tracerCarrier" stroke-linecap="round" stroke-linejoin="round"/>

<g id="SVGRepo_iconCarrier"> <path d="M7 2C4.23858 2 2 4.23858 2 7H3V8H17V7H18C18 4.23858 15.7614 2 13 2H7Z" fill="#45bf53"/> <path d="M3 6C2.44772 6 2 6.44772 2 7V17C2 19.7614 4.23858 22 7 22H17C19.7614 22 22 19.7614 22 17V11C22 8.23858 19.7614 6 17 6H3Z" fill="#1961b8"/> <path d="M18 14C18 15.1046 17.1046 16 16 16C14.8954 16 14 15.1046 14 14C14 12.8954 14.8954 12 16 12C17.1046 12 18 12.8954 18 14Z" fill="#45bf53"/> </g>

</svg>